<svg xmlns:xlink="http://www.w3.org/1999/xlink" xmlns="http://www.w3.org/2000/svg" width="140" height="50" fill="#e51942"><defs><symbol id="icon-aca-logo" viewBox="0 0 1660.4 604.8">
        <path style="display:none;" d="M-3,627.2c0-209.7,0-419.3,0-629c555.7,0,1111.3,0,1667,0c0,209.7,0,419.3,0,629
      C1108.3,627.2,552.6,627.2-3,627.2z M693.7,0.1c-2,0-3.8,0-5.6,0c-39.8,0-79.7,0.1-119.5-0.1c-4.3,0-7.4,1.1-10.6,4
      c-94.5,85.6-189.2,171.2-283.8,256.7C184.1,342.2,94.1,423.6,4,505c-1.2,1.1-2.7,1.7-4.1,2.5c0.4,0.5,0.8,1,1.2,1.6
      c1.6,0,3.2,0,4.8,0c64.3,0,128.7,0,193,0.1c3.9,0,6.8-1,9.8-3.6C318.2,405.7,427.9,306,537.5,206.3c6.6-6,13.2-11.9,20.1-18.1
      c0,62.1,0,123.5,0,185c-2.2,0-4,0-5.8,0c-46,0-92,0-138,0.1c-2.2,0-5,0.8-6.6,2.3c-47.9,43.3-95.8,86.8-143.6,130.2
      c-0.9,0.8-1.6,1.8-2.6,3.1c144.6,0,288.5,0,432.7,0C693.7,339.4,693.7,170.1,693.7,0.1z M1660.2,1.3c-1.2-0.1-2.2-0.3-3.1-0.3
      c-41.5,0-83-0.1-124.5,0.1c-2.2,0-4.8,1.3-6.5,2.8c-53.6,48.3-107,96.7-160.5,145c-72.1,65.2-144.3,130.5-216.4,195.7
      c-51.7,46.8-103.5,93.6-155.2,140.4c-8.9,8.1-17.8,16.2-27.5,25c1.6,0.1,2.2,0.2,2.8,0.2c66.3,0,132.6,0,199-0.1
      c1.9,0,4.1-1.1,5.6-2.4c28.2-25.5,56.2-51,84.3-76.6c87.1-79.2,174.2-158.4,261.3-237.6c1.5-1.4,3.1-2.7,5-4.3
      c0,62.2,0,123.4,0,185.1c-2.2,0-4.2,0-6.2,0c-45.8,0-91.7-0.1-137.5,0.1c-2.6,0-5.9,1.2-7.8,3c-41.3,37.2-82.5,74.6-123.6,112
      c-7.3,6.6-14.6,13.3-22.5,20.4c144.9,0,289,0,433.2,0C1660.2,340.4,1660.2,171,1660.2,1.3z M1319.5,0.1c-3,0-4.8,0-6.6,0
      c-109.5,0-219,0-328.5,0c-7.1,0-14.3,0.3-21.4,1C899,7,844.4,33,800.7,80c-58,62.4-81.1,136.8-64.9,220.2
      c19.7,101.4,81.4,167.6,180,199.1c3.7,1.2,6.3,1,9.4-1.8c42.6-38.8,85.4-77.4,128.1-116c2-1.8,4-3.8,6.6-6.2
      c-1.6-0.2-2.4-0.5-3.1-0.5c-15.8,0.1-31.7,0.4-47.5,0.2c-14.3-0.2-28.8,0.1-42.8-1.9c-65.8-9.4-111.9-75.2-99.2-140.5
      c11.3-58,60.4-98.5,119.5-98.5c59.8,0,119.7,0,179.5,0.1c3.6,0,6.2-0.9,8.9-3.3c11.9-11,23.9-21.7,35.9-32.6
      C1246.8,65.8,1282.6,33.5,1319.5,0.1z M1474.9,0.1c-3,0-4.5,0-6,0c-29.8,0-59.7,0.1-89.5-0.1c-3.4,0-5.8,1.1-8.3,3.3
      c-39.8,36.1-79.8,72.2-119.6,108.2c-8,7.2-15.9,14.4-24.7,22.5c2.8,0,4.4,0,6,0c29,0,58-0.1,87,0.1c5,0,8.7-1.4,12.4-4.8
      c35.1-32,70.3-63.7,105.5-95.6C1449.7,22.9,1461.8,12,1474.9,0.1z M1452.7,574.7c0,16.9,0,33.2,0,49.4c4,0,7.8,0,12.2,0
      c0-13.1,0-25.8,0-39.4c1,1.1,1.2,1.3,1.4,1.6c3.8,8.7,7.6,17.4,11.3,26.1c5.3,12.2,5.2,12.1,18.3,12.2c3.3,0,4.6-1.2,5.8-4
      c4.3-10.4,8.8-20.8,13.3-31.2c0.6-1.4,1.3-2.7,2-4.1c0.4,0.1,0.8,0.2,1.1,0.3c0,12.8,0,25.7,0,38.5c4.3,0,8,0,11.7,0
      c0-16.6,0-32.8,0-49.4c-6,0-11.6,0.2-17.2-0.1c-3.6-0.2-5.3,1.1-6.6,4.4c-4.6,11.7-9.5,23.3-14.6,35.5c-1-2.1-1.7-3.6-2.3-5.1
      c-4.3-10.4-8.6-20.9-13.1-31.2c-0.6-1.5-2.5-3.3-3.9-3.4C1465.8,574.5,1459.5,574.7,1452.7,574.7z M797,574.7
      c-6.3,0-12.1,0.2-17.9-0.1c-3.2-0.1-4.7,1-5.9,3.9c-4.7,11.8-9.7,23.6-14.8,36c-1-2.1-1.7-3.6-2.3-5.1c-4.3-10.4-8.6-20.9-13-31.3
      c-0.6-1.3-1.9-3.3-3-3.3c-6.7-0.3-13.5-0.2-20.4-0.2c0,16.9,0,33.1,0,49.4c4,0,7.8,0,12.2,0c0-13.1,0-25.8,0-38.5
      c4.9,8.9,8.8,17.8,12.7,26.8c5.3,12.3,5.2,12.1,18.3,12.2c3.3,0,4.6-1.2,5.8-4c4.3-10.4,8.8-20.8,13.3-31.2c0.6-1.4,1.3-2.7,2-4.1
      c0.4,0.1,0.8,0.2,1.1,0.3c0,12.8,0,25.7,0,38.6c4.3,0,8,0,11.9,0C797,607.6,797,591.5,797,574.7z M74.2,624.4
      c12.1,0,23.7,0,35.4,0c2,0,4,0,6-0.2c9-0.6,13-5.1,13.3-14.1c0.2-5.3-1.4-9.4-6.6-11.8c5.7-4.6,5.6-10.3,3.8-16.1
      c-1.6-5.5-6.4-7.1-11.4-7.2c-13.4-0.3-26.9-0.1-40.5-0.1C74.2,591.4,74.2,607.6,74.2,624.4z M952.1,574.7c0,16.9,0,33.1,0,49.4
      c4,0,7.7,0,12.1,0c0-13.2,0-26,0-40.3c2,2.5,3,3.7,4,5c8.1,10.8,16.2,21.6,24.3,32.3c1,1.3,2.3,3.1,3.5,3.2
      c6.4,0.3,12.8,0.1,19.6,0.1c0-8.9,0-17,0-25.2c0-8.1,0-16.2,0-24.3c-4.4,0-8,0-12.4,0c0,13.2,0,26.1,0,40.5
      c-2.2-2.8-3.3-4.2-4.4-5.6c-8.2-10.7-16.3-21.5-24.6-32.1c-1-1.3-2.7-2.8-4.2-2.9C964.2,574.5,958.4,574.7,952.1,574.7z
       M192.6,588.8c0.5-9.2-4.2-13.8-14.3-14.1c-8.5-0.2-17-0.3-25.5,0c-12.5,0.4-17.4,6.6-15.1,19c1.1,6.2,3.9,9.1,10.3,9.6
      c7.8,0.5,15.6,0.4,23.4,0.6c2.2,0.1,4.5-0.1,6.4,0.6c1.4,0.6,2.9,2.4,3.1,3.8c0.2,1.7-1.1,5-1.8,5c-9.5,0.4-19.1,0.3-28.6,0.4
      c-3.6-6.1-9.3-3-14.2-3.6c-0.7,9,3.3,13.7,12.3,14c10.1,0.3,20.3,0.3,30.5,0c10.1-0.3,14.7-5.6,14.4-15.7
      c-0.4-11-3.7-14.2-14.6-14.3c-7.5,0-15,0-22.5,0c-3.2,0-6.7,0-6.8-4.6c-0.1-4.6,2.8-5.5,6.6-5.4c2.8,0.1,5.7-0.3,8.5,0.1
      c5.8,0.8,12.9-3.2,17,4.3c0.1,0.3,0.9,0.2,1.4,0.2C186.3,588.8,189.5,588.8,192.6,588.8z M1023,610.1c0.1,9.4,3.6,13.7,12,14
      c11,0.4,22,0.5,33,0c9.2-0.4,12.7-6,12.2-18c-0.3-8.4-4-11.8-13.2-11.9c-8.2-0.1-16.3,0-24.5,0c-3.3,0-6-0.8-5.9-5
      c0.2-4,2.6-5,6.1-4.9c6.5,0,13-0.1,19.5,0.1c1.4,0,3.6,0.3,4.1,1.2c3.6,6.2,8.9,2.2,13.5,3.3c-0.3-8.7-3.4-13.1-11-13.5
      c-11.1-0.6-22.3-0.6-33.4,0.1c-7.9,0.5-11.5,5.8-11.3,14.2c0.3,9.3,3.4,13.2,12.2,13.7c9,0.6,18,0.5,26.9,0.8
      c3.1,0.1,4.9,1.7,4.9,5.1c0,3.3-1.6,5.1-4.7,5.2c-7.8,0.2-15.6,0.1-23.5,0.1c-0.8,0-2-0.2-2.3-0.8
      C1033.9,607.9,1028.3,610.6,1023,610.1z M914.8,624.2c5.2,0,10.3,0.2,15.5,0c8.7-0.5,13.1-4.8,13.5-13.5c0.3-7.1,0.3-14.3,0-21.4
      c-0.4-9.4-4.5-13.9-13.8-14.4c-10.1-0.5-20.3-0.5-30.4,0c-9.7,0.5-13.6,5-13.8,14.7c-0.1,6.6-0.1,13.3,0,20
      c0.2,9.2,4.8,14.1,14.1,14.7C904.9,624.5,909.9,624.2,914.8,624.2z M230.1,624.2C230.1,624.2,230.1,624.2,230.1,624.2
      c4.7,0,9.3,0,14,0c0.5,0,1,0,1.5,0c8.4-0.6,12.8-4.6,13.2-12.7c0.4-7.8,0.4-15.6,0-23.4c-0.4-8.4-4.3-12.6-12.8-13
      c-10.8-0.6-21.6-0.6-32.4,0c-8.7,0.5-12.3,4.8-12.6,13.6c-0.3,7-0.3,14,0,20.9c0.3,9.4,4.9,14,14.2,14.5
      C220.2,624.5,225.2,624.2,230.1,624.2z M438.4,624.1c17,0,33.7,0,50.3,0c0-3.3,0-6.2,0-9.6c-12.9,0-25.5,0-38.2,0
      c0-3.8,0-7,0-10.7c12.6,0,24.8,0,37.3,0c0-3.2,0-6,0-9.2c-12.5,0-24.8,0-37.2,0c0-3.7,0-6.9,0-10.5c13,0,25.6,0,38.1,0
      c0-3.3,0-6.2,0-9.2c-16.9,0-33.5,0-50.3,0C438.4,591.5,438.4,607.7,438.4,624.1z M0,624c1.1,0.2,1.4,0.3,1.7,0.3
      c8.3,1.3,14.9-0.2,17.5-9.7c0.3-1.2,2.9-2.5,4.5-2.5c7.5-0.3,15-0.3,22.4,0c1.7,0.1,4.4,1.5,4.8,2.8c2.6,8.3,8.1,10.8,16.2,9.4
      c0.8-0.1,1.6-0.1,3-0.3c-8.5-16.2-16.8-32-25.2-47.8c-1.4-2.6-17.7-2.6-19.5-0.2c-0.1,0.1-0.2,0.3-0.3,0.4
      C16.8,592.3,8.5,608,0,624z M567.3,607.1c-1.7,5.8-2.4,6.8-6.9,7c-6.8,0.2-13.6,0.2-20.5,0c-3.8-0.1-6.4-2.2-6.5-6.1
      c-0.2-6-0.2-12,0-17.9c0.1-3.3,2.1-5.1,5.5-5.2c5.8-0.1,11.6-0.3,17.4-0.4c5.3-0.1,10.1,0.8,10.9,7c4.2,0,7.9,0,11.6,0
      c0.5-10.3-3.1-15.6-12.7-16.3c-11.2-0.8-22.6-0.4-33.8,0.1c-6.4,0.3-9.8,3.7-10.4,10.2c-0.7,8.7-1,17.6-0.4,26.4
      c0.6,8.7,5.2,12.2,14.4,12.4c9.5,0.2,19,0.2,28.5,0c11.5-0.2,15.6-5,14.5-16.9c-0.6-0.1-1.2-0.2-1.9-0.2
      C573.9,607.1,570.8,607.1,567.3,607.1z M1534.9,623.9c13,1.8,13,1.8,18.5-8.6c1.2-2.3,2.5-3.5,5.3-3.3c5.1,0.3,10.4,0.6,15.4-0.1
      c7.6-1,12.6,1.3,14.9,9c0.4,1.4,2.2,3.1,3.6,3.3c3.7,0.5,7.5,0.2,12,0.2c-0.9-2-1.4-3.3-2.1-4.6c-5.8-11-12.4-21.7-17.1-33.2
      c-4.1-10-10.1-14-20.7-12.2c-2.7,0.5-4.4,1-5.7,3.6c-5.3,10.3-10.8,20.6-16.3,30.8C1540.2,613.9,1537.6,618.8,1534.9,623.9z
       M714.7,624.4c-1-2.1-1.6-3.6-2.4-5c-5.7-10.9-11.4-21.8-17.1-32.6c-6.6-12.6-6.6-12.7-20.9-12c-1.7,0.1-4,1.5-4.9,2.9
      c-4.9,8.7-9.5,17.5-14.1,26.3c-3.5,6.6-6.9,13.1-10.5,19.8c12.7,1.8,13,1.8,18.5-8.5c1.4-2.6,3-3.5,5.8-3.3
      c4.8,0.2,9.7,0.6,14.4-0.1c8-1.1,13.3,1.3,15.6,9.4c0.3,1.2,2.1,2.7,3.3,2.9C706.3,624.6,710.1,624.4,714.7,624.4z M1321.3,624.2
      c-6.8-12.9-14-24.9-19.4-37.6c-4.2-9.9-10.2-14-20.7-12.1c-2.8,0.5-4.3,1.1-5.7,3.6c-7.4,14.1-14.9,28.1-22.4,42.2
      c-0.6,1.1-0.9,2.4-1.4,3.6c12.7,1.4,12.6,1.4,18.5-8.9c0.8-1.5,3.2-2.8,4.9-2.9c7.5-0.3,15-0.3,22.4,0c1.7,0.1,4.3,1.6,4.7,2.9
      c2.6,8.4,8.2,10.7,16.2,9.3C1319.1,624.3,1319.7,624.3,1321.3,624.2z M598.8,624.2c0-7,0-13.6,0-20c10.2,0,19.8,0,30,0
      c0,6.8,0,13.4,0,20c4.3,0,8.1,0,11.9,0c0-16.5,0-32.8,0-49.2c-4,0-7.8,0-12,0c0,6.2,0,12.1,0,18.2c-10.2,0-20,0-30.3,0
      c0-6.2,0-12.1,0-18.2c-4.3,0-8.1,0-12.1,0c0,16.5,0,32.7,0,49.2C590.4,624.2,594.1,624.2,598.8,624.2z M1099.8,593.2
      c0-6.3,0-12.1,0-18.2c-4.2,0-8.1,0-12,0c0,16.6,0,32.8,0,49.1c4.1,0,7.9,0,12.2,0c0-6.8,0-13.4,0-20c10.3,0,20,0,30.2,0
      c0,6.9,0,13.5,0,19.9c4.3,0,8,0,11.6,0c0-16.6,0-32.8,0-49c-4.1,0-7.9,0-12,0c0,6.3,0,12.2,0,18.2
      C1119.7,593.2,1110.1,593.2,1099.8,593.2z M1401.3,593.2c0-6.4,0-12.3,0-18.2c-4.2,0-7.7,0-11.6,0c0,16.5,0,32.8,0,49.2
      c4,0,7.7,0,12.1,0c0-6.8,0-13.4,0-19.9c10.3,0,20,0,30.1,0c0,6.8,0,13.3,0,19.9c4.2,0,7.9,0,11.8,0c0-16.5,0-32.9,0-49.2
      c-4.1,0-7.8,0-12.1,0c0,6.3,0,12.2,0,18.1C1421.4,593.2,1411.8,593.2,1401.3,593.2z M817.2,609.8c4.5,0,8.4,0.1,12.2,0
      c5.1-0.1,10.3,0,15.4-0.6c6.8-0.8,10.4-4.7,11.3-11.9c0.9-7.6,1.8-15.7-6.2-20.5c-2.7-1.6-6.3-1.9-9.6-2.1
      c-6.1-0.3-12.3-0.1-18.5-0.1c-5.4,0-10.9,0-16.5,0c0,16.8,0,33.1,0,49.5c4,0,7.7,0,11.8,0C817.2,619.4,817.2,615,817.2,609.8z
       M1325.4,574.9c0,16.5,0,32.7,0,49.2c4,0,7.7,0,11.9,0c0-7.1,0-13.8,0-20.5c6.8-0.7,6.7-0.6,11,3.4c5.5,5.1,11,10.2,16.5,15.2
      c1.1,0.9,2.5,2,3.7,2.1c5,0.2,10.1,0.1,16.5,0.1c-10.8-9.4-20.5-17.9-30.3-26.5c9.6-7.7,18.8-15,28.9-23.1
      c-10.3-0.2-19.4-2-26.3,6.6c-2.8,3.4-6.9,5.8-10.1,8.9c-3,2.9-6.2,3.4-10.4,2c0-5.8,0-11.6,0-17.4
      C1332.8,574.9,1329.2,574.9,1325.4,574.9z M1185,609.8c7.9,0,15.3,0.2,22.6,0c11.9-0.3,16.5-5.1,16.6-17c0-1.7,0-3.3-0.1-5
      c-0.6-7.7-4.4-12.1-12.1-12.7c-8.1-0.6-16.3-0.4-24.4-0.5c-4.8,0-9.5,0-14.2,0c0,16.9,0,33.2,0,49.4c4,0,7.7,0,11.8,0
      C1185,619.3,1185,614.9,1185,609.8z M361.8,574.9c0,2.3,0,4.1,0,5.9c0,8,0.1,16-0.1,24c-0.2,7.3-2.4,9.4-9.3,9.4
      c-5.5,0-11,0.1-16.5,0c-5.6-0.1-7.9-2.4-8.1-8c-0.2-4.5-0.1-9-0.1-13.5c0-5.9,0-11.8,0-17.8c-4.4,0-8,0-11.8,0
      c0,12.2-0.4,24.2,0.1,36.2c0.3,7.7,5.8,12.7,13.9,13c10.1,0.4,20.3,0.4,30.5,0c7.6-0.3,12.2-4.1,12.6-11.6
      c0.7-12.4,0.2-24.8,0.2-37.5C369.7,574.9,366.1,574.9,361.8,574.9z M432.4,574.9c-18.1,0-35.6,0-53.4,0c0,3.4,0,6.4,0,10.1
      c6.8,0,13.4,0,20.5,0c0,13.4,0,26.3,0,39.2c4.4,0,8.2,0,12.4,0c0-13.2,0-26.1,0-39.5c7.1,0,13.6,0,20.4,0
      C432.4,581.2,432.4,578.3,432.4,574.9z M1660.4,574.9c-18.1,0-35.6,0-53.4,0c0,3.4,0,6.4,0,10.1c6.8,0,13.4,0,20.5,0
      c0,13.4,0,26.3,0,39.2c4.4,0,8.2,0,12.4,0c0-13.2,0-26.1,0-39.5c7.1,0,13.6,0,20.4,0C1660.4,581.3,1660.4,578.3,1660.4,574.9z
       M308.8,624.2c0-3.6,0-6.7,0-10.2c-10.2,0-20.1,0-30.4,0c0-13.2,0-26,0-39c-4.1,0-7.8,0-11.7,0c0,16.6,0,32.8,0,49.2
      C280.8,624.2,294.7,624.2,308.8,624.2z M876.7,574.9c-4.3,0-8,0-12,0c0,16.5,0,32.8,0,49.1c4.1,0,8,0,12,0
      C876.7,607.6,876.7,591.5,876.7,574.9z M1152.2,574.9c0,16.7,0,33,0,49.2c4,0,7.6,0,11.4,0c0-16.5,0-32.7,0-49.2
      C1159.7,574.9,1156.2,574.9,1152.2,574.9z"></path>
        <path fill="#E41942" d="M694.7,0.1c0,170,0,339.3,0,508.8c-144.2,0-288.1,0-432.7,0c1-1.2,1.7-2.3,2.6-3.1
      c47.8-43.4,95.6-86.9,143.6-130.2c1.6-1.5,4.4-2.3,6.6-2.3c46-0.1,92-0.1,138-0.1c1.8,0,3.6,0,5.8,0c0-61.6,0-123,0-185
      c-6.9,6.2-13.5,12.1-20.1,18.1C428.9,306,319.2,405.7,209.6,505.5c-2.9,2.7-5.8,3.7-9.8,3.6c-64.3-0.1-128.7-0.1-193-0.1
      c-1.6,0-3.2,0-4.8,0c-0.4-0.5-0.8-1-1.2-1.6c1.4-0.8,3-1.5,4.1-2.5c90.1-81.4,180.1-162.8,270.1-244.3
      C369.8,175.2,464.4,89.6,558.9,4c3.2-2.9,6.4-4,10.6-4c39.8,0.1,79.7,0.1,119.5,0.1C690.9,0.1,692.7,0.1,694.7,0.1z"></path>
        <path fill="#E41942" d="M1660.2,1.3c0,169.6,0,339,0,508.6c-144.2,0-288.3,0-433.2,0c7.8-7.1,15.1-13.8,22.5-20.4
      c41.2-37.4,82.3-74.8,123.6-112c2-1.8,5.2-3,7.8-3c45.8-0.2,91.7-0.1,137.5-0.1c2,0,3.9,0,6.2,0c0-61.7,0-123,0-185.1
      c-1.9,1.7-3.5,2.9-5,4.3c-87.1,79.2-174.2,158.4-261.3,237.6c-28.1,25.5-56.2,51.1-84.3,76.6c-1.4,1.3-3.7,2.4-5.6,2.4
      c-66.3,0.1-132.6,0.1-199,0.1c-0.6,0-1.2-0.1-2.8-0.2c9.6-8.8,18.5-16.9,27.5-25c51.7-46.8,103.5-93.6,155.2-140.4
      c72.1-65.2,144.3-130.4,216.4-195.7c53.5-48.4,106.9-96.7,160.5-145c1.7-1.5,4.3-2.8,6.5-2.8c41.5-0.2,83-0.1,124.5-0.1
      C1658,1.1,1659,1.2,1660.2,1.3z"></path>
        <path fill="#E41942" d="M1319.5,0.1c-36.9,33.4-72.7,65.8-108.5,98.2c-12,10.8-24,21.6-35.9,32.6c-2.6,2.5-5.3,3.3-8.9,3.3
      c-59.8-0.1-119.7-0.1-179.5-0.1c-59.1,0-108.2,40.5-119.5,98.5c-12.7,65.3,33.4,131.1,99.2,140.5c14.1,2,28.5,1.7,42.8,1.9
      c15.8,0.2,31.7-0.1,47.5-0.2c0.8,0,1.5,0.2,3.1,0.5c-2.6,2.5-4.6,4.4-6.6,6.2c-42.7,38.7-85.5,77.3-128.1,116
      c-3.1,2.8-5.7,3-9.4,1.8c-98.6-31.5-160.3-97.7-180-199.1c-16.2-83.4,6.9-157.9,64.9-220.2C844.4,33,899,7,963,1.1
      c7.1-0.7,14.3-1,21.4-1c109.5-0.1,219,0,328.5,0C1314.7,0.1,1316.5,0.1,1319.5,0.1z"></path>
        <path fill="#E41A43" d="M1474.9,0.1c-13.2,11.9-25.2,22.9-37.3,33.8c-35.2,31.8-70.4,63.6-105.5,95.6c-3.7,3.4-7.3,4.8-12.4,4.8
      c-29-0.2-58-0.1-87-0.1c-1.6,0-3.2,0-6,0c8.9-8.1,16.8-15.3,24.7-22.5c39.9-36.1,79.8-72.1,119.6-108.2c2.5-2.3,4.9-3.4,8.3-3.3
      c29.8,0.1,59.7,0.1,89.5,0.1C1470.5,0.1,1471.9,0.1,1474.9,0.1z"></path>
        <path fill="#E41A43" d="M1452.7,554.7c6.8,0,13.1-0.2,19.4,0.2c1.4,0.1,3.3,1.9,3.9,3.4c4.5,10.4,8.7,20.8,13.1,31.2
      c0.6,1.5,1.4,3,2.3,5.1c5.1-12.3,10-23.8,14.6-35.5c1.3-3.3,2.9-4.6,6.6-4.4c5.6,0.3,11.3,0.1,17.2,0.1c0,16.6,0,32.8,0,49.4
      c-3.6,0-7.4,0-11.7,0c0-12.9,0-25.7,0-38.5c-0.4-0.1-0.8-0.2-1.1-0.3c-0.7,1.4-1.4,2.7-2,4.1c-4.5,10.4-9,20.7-13.3,31.2
      c-1.2,2.8-2.5,4.1-5.8,4c-13-0.1-13,0.1-18.3-12.2c-3.7-8.7-7.5-17.4-11.3-26.1c-0.1-0.3-0.4-0.5-1.4-1.6c0,13.6,0,26.3,0,39.4
      c-4.5,0-8.2,0-12.2,0C1452.7,587.8,1452.7,571.6,1452.7,554.7z"></path>
        <path fill="#E41A43" d="M797,554.7c0,16.8,0,33,0,49.4c-3.8,0-7.6,0-11.9,0c0-12.9,0-25.7,0-38.6c-0.4-0.1-0.8-0.2-1.1-0.3
      c-0.7,1.4-1.4,2.7-2,4.1c-4.5,10.4-9,20.7-13.3,31.2c-1.2,2.8-2.5,4-5.8,4c-13-0.1-13,0.1-18.3-12.2c-3.9-9-7.8-17.9-12.7-26.8
      c0,12.7,0,25.5,0,38.5c-4.5,0-8.2,0-12.2,0c0-16.2,0-32.5,0-49.4c6.9,0,13.7-0.1,20.4,0.2c1.1,0,2.4,2,3,3.3
      c4.4,10.4,8.7,20.8,13,31.3c0.6,1.5,1.4,3,2.3,5.1c5.1-12.4,10.1-24.2,14.8-36c1.2-2.9,2.7-4.1,5.9-3.9
      C784.9,554.8,790.7,554.7,797,554.7z"></path>
        <path fill="#E41A43" d="M74.2,604.4c0-16.8,0-33,0-49.5c13.7,0,27.1-0.2,40.5,0.1c5,0.1,9.8,1.8,11.4,7.2c1.7,5.8,1.9,11.4-3.8,16.1
      c5.2,2.4,6.8,6.6,6.6,11.8c-0.3,9-4.3,13.4-13.3,14.1c-2,0.1-4,0.2-6,0.2C97.9,604.4,86.3,604.4,74.2,604.4z M86.3,583.7
      c0,4.1,0,7.5,0,11.1c8.6,0,16.9,0.1,25.1,0c3.5,0,5.4-1.8,5.4-5.6c0-3.9-2.1-5.4-5.5-5.5C103.1,583.6,94.8,583.7,86.3,583.7z
       M86.2,564.2c0,3.8,0,7,0,10.5c8.1,0,16,0.1,23.9-0.1c3.4-0.1,5.4-2.7,4.6-5.7c-0.4-1.8-2.9-4.4-4.6-4.5
      C102.3,564,94.4,564.2,86.2,564.2z"></path>
        <path fill="#E41A43" d="M952.1,554.7c6.3,0,12.1-0.2,17.9,0.1c1.5,0.1,3.1,1.6,4.2,2.9c8.3,10.7,16.4,21.4,24.6,32.1
      c1.1,1.4,2.2,2.9,4.4,5.6c0-14.4,0-27.3,0-40.5c4.4,0,8,0,12.4,0c0,8.1,0,16.2,0,24.3c0,8.1,0,16.3,0,25.2
      c-6.8,0-13.2,0.2-19.6-0.1c-1.2-0.1-2.6-1.9-3.5-3.2c-8.1-10.7-16.2-21.6-24.3-32.3c-1-1.3-2-2.5-4-5c0,14.3,0,27.1,0,40.3
      c-4.4,0-8.1,0-12.1,0C952.1,587.8,952.1,571.5,952.1,554.7z"></path>
        <path fill="#E41A43" d="M192.6,568.8c-3.1,0-6.3,0-9.4,0c-0.5,0-1.3,0.1-1.4-0.2c-4.1-7.5-11.2-3.5-17-4.3c-2.8-0.4-5.7,0-8.5-0.1
      c-3.8-0.1-6.7,0.8-6.6,5.4c0.1,4.6,3.6,4.6,6.8,4.6c7.5,0.1,15,0,22.5,0c10.9,0,14.2,3.3,14.6,14.3c0.3,10.1-4.3,15.4-14.4,15.7
      c-10.2,0.3-20.3,0.3-30.5,0c-9-0.3-13-5-12.3-14c4.9,0.6,10.6-2.5,14.2,3.6c9.5,0,19.1,0,28.6-0.4c0.7,0,1.9-3.3,1.8-5
      c-0.1-1.4-1.7-3.3-3.1-3.8c-1.9-0.8-4.2-0.6-6.4-0.6c-7.8-0.2-15.6-0.1-23.4-0.6c-6.4-0.4-9.2-3.3-10.3-9.6
      c-2.3-12.3,2.6-18.6,15.1-19c8.5-0.3,17-0.2,25.5,0C188.4,555,193.1,559.6,192.6,568.8z"></path>
        <path fill="#E41A43" d="M1023,590.1c5.3,0.5,10.9-2.2,14.6,3.7c0.3,0.5,1.5,0.8,2.3,0.8c7.8,0,15.6,0.1,23.5-0.1
      c3.1-0.1,4.8-1.9,4.7-5.2c0-3.4-1.8-5-4.9-5.1c-9-0.3-18-0.2-26.9-0.8c-8.8-0.6-11.9-4.4-12.2-13.7c-0.3-8.4,3.4-13.8,11.3-14.2
      c11.1-0.7,22.3-0.7,33.4-0.1c7.6,0.4,10.7,4.9,11,13.5c-4.6-1.1-9.9,2.9-13.5-3.3c-0.5-0.9-2.7-1.1-4.1-1.2
      c-6.5-0.1-13,0-19.5-0.1c-3.4,0-5.9,1-6.1,4.9c-0.2,4.2,2.6,5,5.9,5c8.2,0.1,16.3,0,24.5,0c9.2,0.1,12.9,3.5,13.2,11.9
      c0.4,12-3,17.5-12.2,18c-11,0.5-22,0.4-33,0C1026.6,603.8,1023.1,599.5,1023,590.1z"></path>
        <path fill="#E41A43" d="M914.8,604.2c-5,0-10,0.2-15-0.1c-9.2-0.5-13.9-5.5-14.1-14.7c-0.1-6.6-0.1-13.3,0-20
      c0.2-9.7,4.1-14.2,13.8-14.7c10.1-0.5,20.3-0.5,30.4,0c9.3,0.5,13.4,5,13.8,14.4c0.3,7.1,0.3,14.3,0,21.4
      c-0.4,8.7-4.7,13-13.5,13.5C925.2,604.4,920,604.2,914.8,604.2z M914.6,594.2C914.6,594.2,914.6,594.2,914.6,594.2
      c3.3,0,6.7,0,10,0c4.4,0,7-2.1,7.1-6.5c0.1-5.3,0.2-10.7,0-16c-0.2-4.3-2.4-6.8-6.9-6.8c-6.7,0-13.3-0.1-20,0
      c-4.7,0.1-6.9,2.8-6.9,7.4c0,5,0,10,0,15c0,4.5,2.4,6.8,6.8,6.9C907.9,594.3,911.3,594.2,914.6,594.2z"></path>
        <path fill="#E41A43" d="M230.1,604.2c-5,0-10,0.2-15,0c-9.3-0.5-13.9-5.2-14.2-14.5c-0.2-7-0.2-14,0-20.9c0.4-8.8,4-13.1,12.6-13.6
      c10.8-0.6,21.6-0.6,32.4,0c8.4,0.4,12.3,4.7,12.8,13c0.4,7.8,0.4,15.6,0,23.4c-0.4,8.1-4.8,12-13.2,12.7c-0.5,0-1,0-1.5,0
      C239.5,604.3,234.8,604.3,230.1,604.2C230.1,604.2,230.1,604.2,230.1,604.2z M229.8,594.2C229.8,594.2,229.8,594.2,229.8,594.2
      c3.5,0,7,0.1,10.5,0c4.2-0.1,6.5-2.3,6.6-6.5c0.1-5.2,0.1-10.3,0-15.5c-0.1-4.5-2.3-7.2-7.1-7.2c-6.7,0-13.3,0-20,0
      c-4.5,0-6.7,2.6-6.8,6.9c-0.1,5.2-0.1,10.3,0,15.5c0,4.5,2.5,6.7,6.8,6.9C223.2,594.3,226.5,594.2,229.8,594.2z"></path>
        <path fill="#E41A43" d="M438.4,604.1c0-16.4,0-32.6,0-49.2c16.8,0,33.4,0,50.3,0c0,3,0,5.9,0,9.2c-12.6,0-25.2,0-38.1,0
      c0,3.6,0,6.8,0,10.5c12.4,0,24.7,0,37.2,0c0,3.2,0,6,0,9.2c-12.4,0-24.7,0-37.3,0c0,3.7,0,7,0,10.7c12.7,0,25.3,0,38.2,0
      c0,3.4,0,6.3,0,9.6C472,604.1,455.3,604.1,438.4,604.1z"></path>
        <path fill="#E41A43" d="M0,604c8.5-16.1,16.8-31.8,25.1-47.4c0.1-0.1,0.2-0.3,0.3-0.4c1.8-2.4,18.1-2.4,19.5,0.2
      c8.4,15.8,16.7,31.6,25.2,47.8c-1.4,0.1-2.2,0.1-3,0.3c-8,1.4-13.6-1-16.2-9.4c-0.4-1.3-3.1-2.8-4.8-2.8c-7.5-0.3-15-0.3-22.4,0
      c-1.6,0.1-4.2,1.3-4.5,2.5c-2.5,9.5-9.2,10.9-17.5,9.7C1.4,604.3,1.1,604.3,0,604z M44.5,582c-3.2-6.1-6-11.7-9.3-18.1
      c-3.4,6.4-6.4,12-9.6,18.1C32,582,37.8,582,44.5,582z"></path>
        <path fill="#E41A43" d="M567.3,587.1c3.4,0,6.6,0,9.7,0c0.6,0,1.3,0.2,1.9,0.2c1.1,11.9-3,16.7-14.5,16.9c-9.5,0.1-19,0.2-28.5,0
      c-9.2-0.2-13.8-3.7-14.4-12.4c-0.6-8.7-0.3-17.6,0.4-26.4c0.5-6.4,4-9.8,10.4-10.2c11.3-0.6,22.6-0.9,33.8-0.1
      c9.6,0.7,13.2,6,12.7,16.3c-3.7,0-7.4,0-11.6,0c-0.8-6.2-5.6-7.1-10.9-7c-5.8,0.1-11.6,0.2-17.4,0.4c-3.4,0.1-5.4,1.8-5.5,5.2
      c-0.2,6-0.2,12,0,17.9c0.1,4,2.7,6,6.5,6.1c6.8,0.2,13.6,0.3,20.5,0C564.9,593.9,565.7,592.9,567.3,587.1z"></path>
        <path fill="#E41A43" d="M1534.9,603.9c2.7-5.1,5.3-10,7.9-15c5.4-10.3,11-20.5,16.3-30.8c1.3-2.6,3-3.1,5.7-3.6
      c10.6-1.8,16.5,2.1,20.7,12.2c4.7,11.5,11.4,22.1,17.1,33.2c0.7,1.3,1.2,2.6,2.1,4.6c-4.5,0-8.3,0.3-12-0.2
      c-1.3-0.2-3.1-1.9-3.6-3.3c-2.3-7.7-7.3-10-14.9-9c-5.1,0.7-10.3,0.3-15.4,0.1c-2.8-0.1-4.1,1-5.3,3.3
      C1547.9,605.7,1547.8,605.7,1534.9,603.9z M1579.3,582.1c-3.3-6.3-6.2-11.9-9.4-18.2c-3.4,6.5-6.4,12.1-9.6,18.2
      C1567,582.1,1572.8,582.1,1579.3,582.1z"></path>
        <path fill="#E41A43" d="M714.7,604.4c-4.6,0-8.4,0.2-12.1-0.1c-1.2-0.1-3-1.7-3.3-2.9c-2.3-8.2-7.6-10.5-15.6-9.4
      c-4.7,0.7-9.6,0.3-14.4,0.1c-2.8-0.1-4.5,0.8-5.8,3.3c-5.5,10.3-5.7,10.3-18.5,8.5c3.5-6.7,7-13.3,10.5-19.8
      c4.7-8.8,9.2-17.7,14.1-26.3c0.8-1.5,3.2-2.9,4.9-2.9c14.3-0.6,14.3-0.6,20.9,12c5.7,10.9,11.4,21.7,17.1,32.6
      C713.1,600.8,713.7,602.3,714.7,604.4z M680,563.8c-3.5,6.6-6.5,12.3-9.7,18.3c6.7,0,12.5,0,19,0C686.2,576,683.3,570.4,680,563.8
      z"></path>
        <path fill="#E41A43" d="M1321.3,604.2c-1.6,0.1-2.3,0.1-2.9,0.2c-8,1.5-13.6-0.9-16.2-9.3c-0.4-1.4-3.1-2.9-4.7-2.9
      c-7.5-0.3-15-0.3-22.4,0c-1.7,0.1-4,1.4-4.9,2.9c-5.8,10.3-5.7,10.3-18.5,8.9c0.5-1.3,0.8-2.5,1.4-3.6c7.5-14.1,15-28.1,22.4-42.2
      c1.3-2.5,2.9-3.2,5.7-3.6c10.6-1.8,16.5,2.2,20.7,12.1C1307.4,579.4,1314.6,591.3,1321.3,604.2z M1286.5,563.9
      c-3.4,6.3-6.4,12.1-9.6,18.1c6.4,0,12.3,0,18.8,0C1292.5,575.8,1289.7,570.1,1286.5,563.9z"></path>
        <path fill="#E41A43" d="M598.8,604.2c-4.7,0-8.5,0-12.5,0c0-16.5,0-32.7,0-49.2c4,0,7.7,0,12.1,0c0,6.1,0,12,0,18.2
      c10.3,0,20,0,30.3,0c0-6.1,0-12,0-18.2c4.3,0,8,0,12,0c0,16.4,0,32.7,0,49.2c-3.8,0-7.6,0-11.9,0c0-6.6,0-13.2,0-20
      c-10.2,0-19.8,0-30,0C598.8,590.6,598.8,597.1,598.8,604.2z"></path>
        <path fill="#E41A43" d="M1099.8,573.2c10.3,0,19.9,0,30,0c0-6,0-11.9,0-18.2c4.2,0,7.9,0,12,0c0,16.2,0,32.4,0,49
      c-3.6,0-7.4,0-11.6,0c0-6.4,0-12.9,0-19.9c-10.2,0-19.9,0-30.2,0c0,6.5,0,13.1,0,20c-4.3,0-8.1,0-12.2,0c0-16.3,0-32.5,0-49.1
      c4,0,7.8,0,12,0C1099.8,561.1,1099.8,566.9,1099.8,573.2z"></path>
        <path fill="#E41A43" d="M1401.3,573.2c10.6,0,20.2,0,30.3,0c0-6,0-11.9,0-18.1c4.2,0,8,0,12.1,0c0,16.3,0,32.6,0,49.2
      c-3.9,0-7.6,0-11.8,0c0-6.7,0-13.1,0-19.9c-10.1,0-19.8,0-30.1,0c0,6.5,0,13.1,0,19.9c-4.4,0-8.1,0-12.1,0c0-16.4,0-32.7,0-49.2
      c3.9,0,7.5,0,11.6,0C1401.3,560.8,1401.3,566.7,1401.3,573.2z"></path>
        <path fill="#E41A43" d="M817.2,589.8c0,5.1,0,9.6,0,14.3c-4.1,0-7.8,0-11.8,0c0-16.4,0-32.6,0-49.5c5.6,0,11,0,16.5,0
      c6.2,0,12.3-0.2,18.5,0.1c3.2,0.2,6.9,0.5,9.6,2.1c8,4.8,7.1,12.8,6.2,20.5c-0.9,7.2-4.5,11.1-11.3,11.9
      c-5.1,0.6-10.3,0.5-15.4,0.6C825.6,589.9,821.7,589.8,817.2,589.8z M817.5,579.4c7.5,0,14.4,0.1,21.4,0c4.6-0.1,5.5-3.5,5.5-7.3
      c0-3.6-1-6.9-5.3-7c-7.1-0.2-14.2-0.1-21.6-0.1C817.5,569.9,817.5,574.4,817.5,579.4z"></path>
        <path fill="#E41A43" d="M1325.4,554.9c3.9,0,7.5,0,11.6,0c0,5.8,0,11.6,0,17.4c4.2,1.4,7.4,0.9,10.4-2c3.2-3.1,7.3-5.5,10.1-8.9
      c6.9-8.6,16-6.8,26.3-6.6c-10.2,8.1-19.3,15.4-28.9,23.1c9.8,8.6,19.5,17,30.3,26.5c-6.4,0-11.5,0.1-16.5-0.1
      c-1.3-0.1-2.7-1.2-3.7-2.1c-5.6-5-11-10.1-16.5-15.2c-4.3-4-4.3-4-11-3.4c0,6.7,0,13.5,0,20.5c-4.2,0-7.9,0-11.9,0
      C1325.4,587.7,1325.4,571.4,1325.4,554.9z"></path>
        <path fill="#E41A43" d="M1185,589.8c0,5.1,0,9.5,0,14.3c-4,0-7.8,0-11.8,0c0-16.3,0-32.5,0-49.4c4.7,0,9.5,0,14.2,0
      c8.1,0.1,16.3-0.2,24.4,0.5c7.7,0.6,11.5,5,12.1,12.7c0.1,1.7,0.1,3.3,0.1,5c-0.1,11.9-4.7,16.7-16.6,17
      C1200.3,590,1193,589.8,1185,589.8z M1185.1,579.4c7.7,0,14.8,0.2,21.9-0.1c4.4-0.2,5.1-3.5,5.1-7.1c0-3.6-0.9-7-5.2-7.2
      c-7.2-0.3-14.5-0.1-21.9-0.1C1185.1,569.9,1185.1,574.6,1185.1,579.4z"></path>
        <path fill="#E41A43" d="M361.8,554.9c4.3,0,7.9,0,11.5,0c0,12.7,0.5,25.2-0.2,37.5c-0.4,7.5-5,11.3-12.6,11.6
      c-10.1,0.4-20.3,0.4-30.5,0c-8.1-0.3-13.6-5.3-13.9-13c-0.5-11.9-0.1-23.9-0.1-36.2c3.9,0,7.5,0,11.8,0c0,6,0,11.9,0,17.8
      c0,4.5-0.1,9,0.1,13.5c0.2,5.6,2.5,7.8,8.1,8c5.5,0.1,11,0.1,16.5,0c6.9,0,9.1-2.1,9.3-9.4c0.2-8,0.1-16,0.1-24
      C361.8,559,361.8,557.2,361.8,554.9z"></path>
        <path fill="#E41A43" d="M432.4,554.9c0,3.4,0,6.3,0,9.8c-6.8,0-13.3,0-20.4,0c0,13.4,0,26.4,0,39.5c-4.3,0-8.1,0-12.4,0
      c0-12.9,0-25.8,0-39.2c-7.1,0-13.7,0-20.5,0c0-3.7,0-6.7,0-10.1C396.7,554.9,414.3,554.9,432.4,554.9z"></path>
        <path fill="#E41A43" d="M1660.4,554.9c0,3.4,0,6.3,0,9.8c-6.8,0-13.3,0-20.4,0c0,13.4,0,26.4,0,39.5c-4.3,0-8.1,0-12.4,0
      c0-12.9,0-25.8,0-39.2c-7.1,0-13.7,0-20.5,0c0-3.7,0-6.7,0-10.1C1624.7,554.9,1642.3,554.9,1660.4,554.9z"></path>
        <path fill="#E41A43" d="M308.8,604.2c-14.1,0-28,0-42.1,0c0-16.4,0-32.7,0-49.2c3.9,0,7.6,0,11.7,0c0,13,0,25.7,0,39
      c10.3,0,20.2,0,30.4,0C308.8,597.5,308.8,600.6,308.8,604.2z"></path>
        <path fill="#E41A43" d="M876.7,554.9c0,16.5,0,32.7,0,49.1c-4,0-7.9,0-12,0c0-16.4,0-32.6,0-49.1
      C868.7,554.9,872.4,554.9,876.7,554.9z"></path>
        <path fill="#E41A43" d="M1152.2,554.9c3.9,0,7.5,0,11.4,0c0,16.5,0,32.7,0,49.2c-3.8,0-7.3,0-11.4,0
      C1152.2,587.9,1152.2,571.6,1152.2,554.9z"></path>
        <path fill="#E41A43" d="M86.3,583.7c8.5,0,16.8-0.1,25.1,0c3.5,0,5.6,1.6,5.5,5.5c0,3.8-1.9,5.6-5.4,5.6c-8.3,0.1-16.5,0-25.1,0
      C86.3,591.1,86.3,587.7,86.3,583.7z"></path>
        <path fill="#E41A43" d="M86.2,564.2c8.2,0,16.1-0.3,24,0.2c1.7,0.1,4.2,2.7,4.6,4.5c0.7,3-1.2,5.6-4.6,5.7
      c-7.9,0.2-15.8,0.1-23.9,0.1C86.2,571.2,86.2,568.1,86.2,564.2z"></path>
        <path fill="#E41A43" d="M914.6,594.2c-3.3,0-6.7,0.1-10,0c-4.4-0.2-6.8-2.4-6.8-6.9c0-5,0-10,0-15c0-4.6,2.2-7.3,6.9-7.4
      c6.7-0.1,13.3,0,20,0c4.5,0,6.8,2.5,6.9,6.8c0.2,5.3,0.2,10.7,0,16c-0.1,4.5-2.8,6.5-7.1,6.5C921.3,594.2,917.9,594.2,914.6,594.2
      C914.6,594.2,914.6,594.2,914.6,594.2z"></path>
        <path fill="#E41A43" d="M229.8,594.2c-3.3,0-6.7,0.1-10,0c-4.4-0.1-6.8-2.4-6.8-6.9c0-5.2-0.1-10.3,0-15.5c0.1-4.3,2.3-6.9,6.8-6.9
      c6.7-0.1,13.3-0.1,20,0c4.7,0,7,2.7,7.1,7.2c0.1,5.2,0.1,10.3,0,15.5c-0.1,4.2-2.4,6.4-6.6,6.5
      C236.8,594.3,233.3,594.2,229.8,594.2C229.8,594.2,229.8,594.2,229.8,594.2z"></path>
        <path fill="#E41A43" d="M44.5,582c-6.7,0-12.4,0-18.9,0c3.2-6.1,6.2-11.7,9.6-18.1C38.5,570.4,41.3,575.9,44.5,582z"></path>
        <path fill="#E41A43" d="M1579.3,582.1c-6.6,0-12.3,0-19,0c3.2-6.1,6.2-11.7,9.6-18.2C1573.2,570.2,1576.1,575.8,1579.3,582.1z"></path>
        <path fill="#E41A43" d="M680,563.8c3.3,6.6,6.2,12.2,9.3,18.3c-6.5,0-12.2,0-19,0C673.5,576.1,676.5,570.4,680,563.8z"></path>
        <path fill="#E41A43" d="M1286.5,563.9c3.2,6.3,6.1,11.9,9.2,18.1c-6.6,0-12.4,0-18.8,0C1280.1,575.9,1283.1,570.2,1286.5,563.9z"></path>
        <path fill="#E41A43" d="M817.5,579.4c0-5,0-9.5,0-14.4c7.4,0,14.5-0.1,21.6,0.1c4.3,0.1,5.3,3.4,5.3,7c0,3.8-0.9,7.2-5.5,7.3
      C831.9,579.6,824.9,579.4,817.5,579.4z"></path>
        <path fill="#E41A43" d="M1185.1,579.4c0-4.8,0-9.4,0-14.4c7.4,0,14.6-0.2,21.9,0.1c4.3,0.2,5.2,3.5,5.2,7.2c0,3.6-0.8,7-5.1,7.1
      C1199.9,579.6,1192.8,579.4,1185.1,579.4z"></path>
    </symbol></defs>
                    <use xlink:href="#icon-aca-logo" fill="#E51942"></use>
                </svg>